<svg version="1.1" id="Layer_1" xmlns="http://www.w3.org/2000/svg" xmlns:xlink="http://www.w3.org/1999/xlink" x="0px" y="0px"
	 width="100%" viewBox="0 0 200 200" enable-background="new 0 0 200 200" xml:space="preserve">
<path fill="#131343" opacity="1.000000" stroke="none" 
	d="
M134.000000,201.000000 
	C89.333336,201.000000 45.166672,201.000000 1.000004,201.000000 
	C1.000000,135.666672 1.034228,70.333275 0.903356,5.000213 
	C0.896496,1.575547 1.575389,0.896242 5.000179,0.903287 
	C68.999908,1.034933 133.000046,1.034930 196.999771,0.903294 
	C200.424454,0.896250 201.103775,1.575354 201.096710,5.000167 
	C200.965057,68.999893 200.965088,133.000031 201.096710,196.999756 
	C201.103775,200.424408 200.429428,201.135345 196.999054,201.101761 
	C176.167709,200.897705 155.333344,201.000000 134.000000,201.000000 
z"/>
<path fill="#E6E6E7" opacity="1.000000" stroke="none" 
	d="
M95.000092,47.161850 
	C106.814857,47.161873 118.130638,47.248398 129.443893,47.117413 
	C133.701721,47.068119 136.999588,48.222523 138.527908,52.477230 
	C140.226501,57.205952 139.051270,63.000938 135.752060,65.542175 
	C117.606422,79.519051 97.106812,86.194862 74.183754,84.936150 
	C66.245338,84.500244 65.995621,84.005096 65.995628,76.183571 
	C65.995628,69.195030 65.933128,62.205750 66.016579,55.218208 
	C66.078888,50.000179 68.771973,47.275734 74.034119,47.189796 
	C80.854446,47.078415 87.677963,47.162125 95.000092,47.161850 
z"/>
<path fill="#E2E2E3" opacity="1.000000" stroke="none" 
	d="
M106.962494,108.537918 
	C99.727791,108.537895 92.985199,108.537895 85.697884,108.537895 
	C87.437050,105.542175 89.565819,105.256981 91.924400,105.081932 
	C93.400414,104.972382 95.946014,106.416595 95.965538,103.143753 
	C95.987595,99.446678 93.104309,101.161835 91.583611,101.102715 
	C85.936913,100.883171 80.276596,101.017181 74.621391,101.011993 
	C71.525841,101.009148 68.821770,100.239159 66.698051,96.601936 
	C80.292282,97.852859 92.942894,95.943687 105.221031,91.732887 
	C117.328712,87.580544 128.600830,81.833641 138.881577,72.772552 
	C138.881577,80.320290 139.202057,87.219063 138.769974,94.070381 
	C138.477386,98.709663 135.183517,100.977486 130.537415,101.003815 
	C124.383415,101.038696 118.228706,100.979279 112.075195,101.044647 
	C110.775475,101.058441 108.974724,100.321007 108.839493,102.853462 
	C108.690567,105.642342 110.579895,105.161354 112.156990,105.127502 
	C114.723480,105.072395 117.112175,105.325943 119.167587,108.537949 
	C114.918167,108.537949 111.186378,108.537949 106.962494,108.537918 
z"/>
<path fill="#3D3EE1" opacity="1.000000" stroke="none" 
	d="
M62.775585,58.131668 
	C60.300304,62.003113 57.367935,65.020035 56.034393,69.099144 
	C53.933769,75.524658 56.021080,80.737160 62.443947,83.951111 
	C71.534966,88.500191 81.294922,87.893822 90.854942,86.532074 
	C109.692863,83.848770 126.797760,76.951485 141.090698,63.966255 
	C141.409485,63.676636 141.911423,63.588600 142.859619,63.174126 
	C142.217987,65.570900 140.979813,67.119102 139.611374,68.392891 
	C117.716583,88.773155 92.134529,97.687912 62.265499,92.993729 
	C59.458626,92.552612 56.850243,91.349815 54.457771,89.783279 
	C48.093105,85.615807 46.106449,79.400902 49.133904,72.425598 
	C51.716309,66.475708 56.048397,61.896847 61.512703,57.928692 
	C62.160175,57.742962 62.495792,57.683170 62.775585,58.131668 
z"/>
<path fill="#DCDCDF" opacity="1.000000" stroke="none" 
	d="
M34.912968,135.874298 
	C31.367189,135.943466 27.377060,134.626389 28.047459,140.255783 
	C28.134651,140.987961 27.232483,141.118790 26.548622,141.164185 
	C25.549463,141.230499 24.980385,140.845169 24.990015,139.794830 
	C25.038620,134.493820 25.047022,129.191757 25.181089,123.892868 
	C25.206928,122.871605 26.065435,121.844681 27.043556,121.804680 
	C31.666498,121.615631 36.299107,121.528389 40.924294,121.615662 
	C42.210041,121.639915 42.013538,123.064987 42.017273,124.021637 
	C42.036694,128.995621 42.039772,133.969788 42.015701,138.943726 
	C42.011269,139.859375 42.339584,141.022949 40.805424,141.162079 
	C39.282722,141.300156 38.624493,140.558014 38.814056,139.126480 
	C39.173855,136.409378 37.872215,135.540237 34.912968,135.874298 
z"/>
<path fill="#CCCCD2" opacity="1.000000" stroke="none" 
	d="
M80.791641,131.366333 
	C84.648888,129.565903 86.520187,126.065567 89.335960,123.634911 
	C90.859535,122.319717 92.136040,120.706795 94.942009,121.898193 
	C92.301117,124.202881 89.794655,126.390251 86.681427,129.107147 
	C89.869911,130.678467 92.975441,129.188858 94.321892,131.812180 
	C95.520279,134.147034 94.717445,136.705948 94.912117,139.157028 
	C94.999336,140.255066 94.735268,141.140030 93.396217,141.192825 
	C92.276947,141.236969 91.204605,140.868027 91.425499,139.610046 
	C93.012253,130.573593 86.496841,133.189270 81.504013,133.030106 
	C80.679115,132.710144 80.527748,132.240402 80.791641,131.366333 
z"/>
<path fill="#CECED4" opacity="1.000000" stroke="none" 
	d="
M170.120728,125.260834 
	C170.675827,123.842079 171.237900,122.844215 172.871201,122.432007 
	C172.700928,125.498138 173.263870,128.009979 177.213287,127.159363 
	C177.774002,127.038589 178.610565,127.213715 178.699951,128.105789 
	C178.810364,129.207443 178.010803,129.364319 177.171295,129.593124 
	C175.843292,129.955048 173.700943,128.754105 173.287201,130.655991 
	C172.804901,132.872971 172.851715,135.326645 173.244522,137.577148 
	C173.614029,139.694046 175.737228,138.405212 177.040634,138.761765 
	C177.817581,138.974319 178.816345,138.854279 178.801361,140.015533 
	C178.786560,141.163651 177.811401,141.089340 177.010361,141.236908 
	C171.693268,142.216492 170.167099,140.896591 170.066208,135.349335 
	C170.019302,132.769012 171.153946,129.618881 167.215744,129.018738 
	C167.460068,126.966591 170.169754,127.621811 170.120728,125.260834 
z"/>
<path fill="#CCCCD2" opacity="1.000000" stroke="none" 
	d="
M140.146820,139.665649 
	C137.534241,141.960815 134.638321,141.171722 131.891907,141.190109 
	C130.110886,141.202057 129.271561,140.026566 129.115509,138.327438 
	C129.085312,137.998611 129.104019,137.665482 129.078629,137.335999 
	C128.297623,127.203659 128.423996,127.066521 138.543076,127.079048 
	C140.185410,127.081085 141.827744,127.079338 143.716431,127.079338 
	C143.015121,128.391968 142.491241,129.372482 142.282532,130.668549 
	C142.144150,131.619263 141.526123,132.012344 140.420563,132.262833 
	C139.092850,132.290512 138.132645,132.125259 137.162170,132.173569 
	C135.790436,132.241882 134.539398,132.510712 134.354370,134.190155 
	C134.183685,135.739441 134.966583,136.621780 136.449738,136.925537 
	C137.563278,137.153610 138.647141,137.447739 139.826324,138.396149 
	C140.145279,138.883224 140.218506,139.110580 140.146820,139.665649 
z"/>
<path fill="#B0B0BD" opacity="1.000000" stroke="none" 
	d="
M154.234558,129.143005 
	C151.555954,132.098221 153.223969,135.414047 152.795807,138.423569 
	C152.609848,139.730804 152.953537,141.274124 150.932892,141.247910 
	C149.299576,141.226715 149.228683,140.012695 149.231277,138.782059 
	C149.242844,133.287567 149.217209,127.792839 149.262695,122.298676 
	C149.277771,120.478889 150.172455,119.181946 152.216537,118.470039 
	C153.571335,121.433578 152.053024,124.673889 153.550079,127.721375 
	C154.245758,128.145859 154.402618,128.480103 154.234558,129.143005 
z"/>
<path fill="#B0B0BD" opacity="1.000000" stroke="none" 
	d="
M52.274399,140.860077 
	C51.941193,143.310822 51.858349,145.446838 51.743916,147.581192 
	C51.680481,148.764267 51.574764,149.988785 49.935669,149.937317 
	C48.675991,149.897766 48.283733,148.976257 48.279152,147.923264 
	C48.251926,141.666183 48.135635,135.405090 48.319942,129.153336 
	C48.410652,126.076286 50.512794,127.078972 52.678162,127.737686 
	C53.776943,128.257828 54.097595,128.973694 54.228569,130.193329 
	C53.993141,133.465530 54.359535,136.404175 53.141006,139.547119 
	C52.818775,140.117493 52.665173,140.331085 52.274399,140.860077 
z"/>
<path fill="#C6C6CD" opacity="1.000000" stroke="none" 
	d="
M140.120346,140.439407 
	C139.996033,139.814590 139.990143,139.635849 139.979919,139.188858 
	C137.687561,136.534027 137.381897,134.045837 140.063904,131.200043 
	C141.051834,130.960876 141.567474,130.950363 142.340393,130.961975 
	C144.048203,136.337280 143.089890,141.782211 143.144577,147.182892 
	C143.165283,149.226562 141.468307,149.884247 139.663895,149.912781 
	C136.404617,149.964294 133.143967,149.927368 129.779617,149.927368 
	C130.311844,146.779709 132.500916,146.780685 134.399536,147.116470 
	C139.720322,148.057541 141.156357,145.644333 140.120346,140.439407 
z"/>
<path fill="#D9D9DC" opacity="1.000000" stroke="none" 
	d="
M52.959602,129.789398 
	C53.053711,129.026215 53.086769,128.593430 53.118664,127.941597 
	C54.946087,126.576561 56.968277,127.263817 58.899017,127.142670 
	C61.566795,126.975281 62.654160,128.403625 62.909798,130.998642 
	C63.855938,140.602875 63.267033,141.253998 52.488258,141.187546 
	C52.039417,140.973038 52.041607,140.770584 52.025337,140.264999 
	C52.725616,138.878357 53.490559,137.930206 54.708664,137.250717 
	C58.731457,135.006744 58.704548,133.874649 54.742756,131.654449 
	C54.024929,131.252197 53.327785,130.855011 52.959602,129.789398 
z"/>
<path fill="#3B3CDA" opacity="1.000000" stroke="none" 
	d="
M146.751587,58.991348 
	C144.965439,57.149128 143.423569,59.189716 141.377136,58.638332 
	C142.671204,56.330708 143.320755,53.920486 140.151993,51.344395 
	C143.691345,51.362167 146.160172,50.967522 147.745453,47.445866 
	C148.245621,51.139812 149.502823,53.243847 153.521286,53.736275 
	C150.583694,55.373108 148.865112,56.475929 148.942825,59.309612 
	C148.992920,61.135815 147.681305,59.622929 146.751587,58.991348 
z"/>
<path fill="#C8C8D0" opacity="1.000000" stroke="none" 
	d="
M104.542191,127.754295 
	C108.052475,126.820526 111.989830,125.668381 113.871033,128.656952 
	C115.944450,131.950867 114.542229,136.357864 114.467278,140.279999 
	C114.461464,140.584305 113.497627,141.035156 112.932724,141.124329 
	C112.135811,141.250153 111.811996,140.601257 111.784409,139.885635 
	C111.740021,138.734268 111.739090,137.580902 111.734787,136.428345 
	C111.709602,129.684448 111.711075,129.684448 104.405708,129.604309 
	C103.506241,128.897812 103.603638,128.298508 104.542191,127.754295 
z"/>
<path fill="#D4D4D9" opacity="1.000000" stroke="none" 
	d="
M154.532623,129.478058 
	C154.050293,129.058044 154.016632,128.721436 153.960266,128.131668 
	C157.081787,126.755852 160.911438,125.707970 162.945984,128.563477 
	C165.264023,131.816833 163.678757,136.252090 163.791931,140.170670 
	C163.813385,140.913376 162.999710,141.134933 162.330811,141.164536 
	C161.260239,141.211884 160.952423,140.536179 160.957718,139.597183 
	C160.965179,138.275238 160.758194,136.917908 160.987610,135.637436 
	C161.875229,130.682938 159.961792,128.643127 154.532623,129.478058 
z"/>
<path fill="#E2E2E3" opacity="1.000000" stroke="none" 
	d="
M80.999359,130.583282 
	C80.983841,131.494781 80.981171,131.956528 81.014671,132.763580 
	C81.036980,135.100220 81.023521,137.091537 81.009094,139.082855 
	C81.001678,140.107529 80.962738,141.081894 79.548264,141.141785 
	C78.231094,141.197586 77.825829,140.464966 77.826050,139.315598 
	C77.827049,134.005020 77.819916,128.694397 77.836227,123.383865 
	C77.839661,122.268318 78.224861,121.454041 79.571632,121.540901 
	C80.987724,121.632240 80.999138,122.649277 81.005348,123.661163 
	C81.018570,125.818542 81.011162,127.976059 80.999359,130.583282 
z"/>
<path fill="#B7B7C3" opacity="1.000000" stroke="none" 
	d="
M104.461411,127.759003 
	C104.629578,128.224289 104.372948,128.706619 104.034912,129.379974 
	C102.629303,132.609329 103.634460,135.805771 103.323654,138.913467 
	C103.228065,139.869232 103.494362,141.086685 102.084236,141.207962 
	C100.453819,141.348206 100.259331,140.176254 100.266106,138.898621 
	C100.281990,135.903793 100.315849,132.907974 100.259666,129.914108 
	C100.201065,126.791183 101.739319,126.653038 104.461411,127.759003 
z"/>
<path fill="#C6C6CD" opacity="1.000000" stroke="none" 
	d="
M68.332001,131.699387 
	C68.176186,129.462372 68.947212,128.121689 70.828407,127.008614 
	C71.754684,131.300659 71.084137,135.509720 71.242447,139.668823 
	C71.278282,140.610168 70.846695,141.255356 69.783905,141.170227 
	C68.791451,141.090759 68.361450,140.455444 68.353905,139.520782 
	C68.333946,137.047668 68.336967,134.574356 68.332001,131.699387 
z"/>
<path fill="#D9D9DC" opacity="1.000000" stroke="none" 
	d="
M120.116531,132.359955 
	C119.938568,129.981781 120.375595,128.346817 123.030746,126.997147 
	C123.030746,131.436172 123.030968,135.431900 123.030571,139.427612 
	C123.030487,140.290878 122.964478,141.118057 121.806068,141.146408 
	C120.530502,141.177643 120.094101,140.481796 120.114571,139.279327 
	C120.151337,137.118729 120.119507,134.956955 120.116531,132.359955 
z"/>
<path fill="#1F1F6F" opacity="1.000000" stroke="none" 
	d="
M116.281418,153.863770 
	C114.093613,154.893448 112.053223,155.713806 109.976067,156.427139 
	C108.703384,156.864212 107.609741,156.493347 107.287575,155.084732 
	C106.994530,153.803421 107.574974,152.642548 108.850769,152.389542 
	C111.418388,151.880356 114.066376,151.237045 116.624641,151.423828 
	C118.143066,151.534683 116.848289,152.865555 116.281418,153.863770 
z"/>
<path fill="#2C2CA1" opacity="1.000000" stroke="none" 
	d="
M66.986946,152.266937 
	C68.577332,155.487152 66.707405,156.025986 64.480667,155.954926 
	C63.596493,155.926712 61.425243,156.138489 62.222206,154.519928 
	C62.930576,153.081253 63.982277,150.415649 66.986946,152.266937 
z"/>
<path fill="#272890" opacity="1.000000" stroke="none" 
	d="
M164.261719,151.432480 
	C167.926102,150.983780 168.025467,152.874420 167.634125,156.489685 
	C165.300644,152.721054 163.355499,151.541702 161.795181,156.155212 
	C162.396317,154.269028 161.080902,151.914841 164.261719,151.432480 
z"/>
<path fill="#272890" opacity="1.000000" stroke="none" 
	d="
M138.665314,155.261108 
	C137.438278,156.649979 136.050980,157.167618 135.760223,155.242401 
	C135.599442,154.177902 135.310211,151.802612 137.164780,151.691971 
	C139.096466,151.576752 138.974609,153.478409 138.665314,155.261108 
z"/>
<path fill="#2C2CA1" opacity="1.000000" stroke="none" 
	d="
M145.903488,154.720993 
	C144.640518,156.066666 143.375793,157.047104 142.726120,154.668320 
	C142.411057,153.514771 141.866531,151.819595 143.721832,151.534042 
	C145.664215,151.235062 146.034576,152.775055 145.903488,154.720993 
z"/>
<path fill="#B0B0BD" opacity="1.000000" stroke="none" 
	d="
M68.390968,123.801590 
	C68.264153,122.165375 68.741623,121.142471 70.187904,121.385101 
	C71.365776,121.582695 71.516258,122.753120 71.228516,123.684418 
	C70.672653,125.483589 69.619568,125.317749 68.390968,123.801590 
z"/>
<path fill="#272890" opacity="1.000000" stroke="none" 
	d="
M82.944939,155.448761 
	C81.178818,151.245636 81.178818,151.245636 85.467323,151.749268 
	C84.692657,153.056091 83.976562,154.264084 82.944939,155.448761 
z"/>
<path fill="#2C2CA1" opacity="1.000000" stroke="none" 
	d="
M122.124718,155.049118 
	C120.369087,156.536118 119.336136,155.973114 119.054932,153.979904 
	C118.898575,152.871613 119.480812,151.708618 120.497849,151.690536 
	C122.589882,151.653381 121.469933,153.736130 122.124718,155.049118 
z"/>
<path fill="#B7B7C3" opacity="1.000000" stroke="none" 
	d="
M123.081558,123.152748 
	C122.764977,125.228745 121.686897,125.349525 120.586212,124.476631 
	C119.724442,123.793213 119.735565,122.570015 120.573502,121.865158 
	C121.695709,120.921158 122.724564,121.125069 123.081558,123.152748 
z"/>
<path fill="#272890" opacity="1.000000" stroke="none" 
	d="
M48.570358,155.151047 
	C46.256802,155.154495 47.001255,153.324753 46.634815,152.128967 
	C46.614376,152.062256 47.448112,151.518478 47.667561,151.628601 
	C49.064064,152.329391 49.063248,153.584198 48.570358,155.151047 
z"/>
<path fill="#2C2CA1" opacity="1.000000" stroke="none" 
	d="
M147.455658,151.796295 
	C150.037674,152.374588 148.686890,153.985779 148.632370,155.621414 
	C146.463989,154.861176 147.202286,153.332031 147.455658,151.796295 
z"/>
<path fill="#2C2CA1" opacity="1.000000" stroke="none" 
	d="
M103.971375,154.357635 
	C104.266220,154.717896 104.302788,155.082962 104.339363,155.448013 
	C104.077782,155.450226 103.816200,155.452438 103.554619,155.454651 
	C103.607445,155.090576 103.660271,154.726501 103.971375,154.357635 
z"/>
<path fill="#3D3EE1" opacity="1.000000" stroke="none" 
	d="
M62.037437,58.023735 
	C62.224937,57.423588 62.625313,57.044422 63.290302,56.571232 
	C63.746033,56.498528 63.937149,56.519840 64.130516,56.829594 
	C63.809277,57.532982 63.485783,57.947929 62.941025,58.501419 
	C62.563286,58.508213 62.406803,58.376469 62.037437,58.023735 
z"/>
<path fill="#3D3EE1" opacity="1.000000" stroke="none" 
	d="
M63.692787,56.643364 
	C64.022926,56.256996 64.626419,55.730694 64.308586,57.003334 
	C64.132767,57.118034 63.830654,56.809513 63.692787,56.643364 
z"/>
<path fill="#272752" opacity="1.000000" stroke="none" 
	d="
M28.146814,132.256287 
	C28.144779,131.349564 28.144159,130.852432 28.144499,130.355286 
	C28.148314,124.772270 32.581669,121.868469 37.584774,124.308922 
	C39.949017,125.462173 38.577454,127.827583 38.801510,129.635330 
	C38.949795,130.831741 39.292309,132.535797 37.343502,132.759476 
	C34.328083,133.105576 31.156099,132.363434 28.357370,134.132690 
	C28.287804,133.643753 28.218239,133.154800 28.146814,132.256287 
z"/>
<path fill="#22224F" opacity="1.000000" stroke="none" 
	d="
M140.431396,130.488602 
	C140.424393,133.334763 140.312592,135.698135 140.088196,138.491074 
	C138.825180,138.879425 137.653397,138.961349 136.529602,138.766525 
	C135.052002,138.510376 132.729950,139.803329 132.273834,137.649658 
	C131.779831,135.317154 132.115570,132.767944 132.360092,130.340530 
	C132.455124,129.396973 133.698166,129.579193 134.463760,129.607147 
	C136.420273,129.678528 138.372604,129.865250 140.431396,130.488602 
z"/>
<path fill="#171746" opacity="1.000000" stroke="none" 
	d="
M52.663368,129.746735 
	C53.517666,129.488937 54.018990,129.487152 54.510956,129.554153 
	C56.909859,129.880859 60.377407,128.084732 60.087715,133.178360 
	C59.881027,136.812561 60.128620,139.923065 55.001621,138.868423 
	C54.330330,138.730316 53.503704,139.347336 52.377949,139.788239 
	C51.782764,136.642975 51.263088,133.315170 52.663368,129.746735 
z"/>
</svg>